<svg xmlns="http://www.w3.org/2000/svg" width="300" height="175" viewBox="0 0 300 175" xmlns:xlink="http://www.w3.org/1999/xlink">
  <defs>
    <polygon id="a" points="0 .402 40.52 .402 40.52 50.438 0 50.438"/>
  </defs>
  <g fill="none" fill-rule="evenodd">
    <path fill="#FFE000" d="M134.117653 125.410298C134.044098 124.797688 133.922207 124.185079 133.907496 123.578774 133.873345 122.002592 133.891734 120.430088 133.885954 118.856532 133.882802 118.589107 133.867566 118.305394 133.831313 118.036918 133.721506 117.146375 133.578074 116.26634 133.489807 115.378949 133.388932 114.427986 133.343222 113.461786 133.248651 112.507671 133.111524 111.157408 133.145149 109.761436 132.629737 108.328161 132.629737 108.865114 132.608722 109.23394 132.636042 109.605919L133.254956 117.893485C133.358459 119.274221 133.501891 120.652329 133.361611 122.020981 133.315902 122.474921 133.388932 122.98718 133.388932 123.468967 133.383152 124.880175 133.767215 126.178424 133.931664 127.541296 133.95268 127.712049 134.04725 127.882277 134.132364 128.010473 134.226935 128.157058 134.382452 127.818704 134.3462 127.464588 134.285254 126.778949 134.193835 126.09331 134.117653 125.410298M124.439685 13.5252189C124.363503 14.18669 124.548967 14.8513135 124.845289 15.4880911 124.887846 15.2017513 124.942487 15.0157618 124.942487 14.823993 124.945639 13.2541156 124.957723 11.6842382 124.924623 10.1085814 124.918319 9.75183888 124.734956 9.37985989 124.637758 9.01418564 124.385044 9.1938704 124.317793 9.50490368 124.369282 9.86742557 124.537408 11.1052539 124.57366 12.3063047 124.439685 13.5252189M126.335517 29.0920665C126.329212 28.9701751 126.274571 28.8514361 126.18 28.5099299 125.82063 29.4094046 126.235166 29.9090543 126.350753 30.4911909 126.372294 30.0188616 126.359685 29.5554641 126.335517 29.0920665M191.118074 48.3015236C191.462207 48.2069527 191.782697 47.9447811 192.111594 47.7556392 191.876743 47.5575657 191.563082 47.5670228 191.224729 47.7009982 190.063082 48.1643958 188.908266 48.4964448 187.691979 48.6582662 187.027356 48.74338 186.423678 49.0848862 185.877793 49.5241156 186.170438 49.5025744 186.362207 49.5083538 186.548722 49.4626445 188.07289 49.0848862 189.596532 48.7160595 191.118074 48.3015236M166.86373 56.1080385C166.979842 56.0712609 167.083345 55.9861471 167.391226 55.8122417 166.430806 55.6871979 166.04359 56.2052364 165.513468 56.4616287 165.973713 56.3670578 166.421874 56.2451664 166.86373 56.1080385M98.3688441 20.5725919C98.719282 21.0816988 99.1154291 21.5666375 99.4143783 22.0967601 100.182504 23.4743433 100.902294 24.8708406 101.648879 26.2542032 101.77655 26.497986 101.926287 26.7328371 102.081278 26.9524518 102.59669 27.6869527 103.133117 28.3972855 103.63014 29.1375657 104.16972 29.9303853 104.660438 30.7563047 105.19056 31.558056 105.94345 32.6860771 106.574448 33.9386165 107.696165 34.9631349 107.446077 34.4934326 107.29056 34.1487741 107.095639 33.8351138L102.654483 26.8090193C101.91683 25.6389667 101.146077 24.4862522 100.624361 23.215324 100.453608 22.7944834 100.149405 22.3767951 99.9266375 21.9533275 99.2651664 20.7002627 98.3199825 19.7345884 97.5308406 18.6097198 97.4331173 18.4694396 97.268669 18.3596322 97.1341681 18.2866025 96.9818039 18.2009632 97.0064974 18.5729422 97.1982662 18.8718914 97.5823292 19.4450963 97.9758494 20.0083187 98.3688441 20.5725919M159.441541 114.827496C159.191454 114.202802 158.719124 113.699475 158.158529 113.279159 158.252574 113.553415 158.295131 113.742557 158.383923 113.907005 159.118424 115.299299 159.84662 116.690018 160.614746 118.067601 160.791804 118.381261 161.120701 118.622417 161.37972 118.899825 161.520525 118.622417 161.434886 118.317688 161.218949 118.021891 160.490228 117.006305 159.892329 115.963923 159.441541 114.827496M150.866953 102.40634C150.760298 101.439615 150.162925 101.198984 149.784641 100.738739 149.986392 101.169037 150.218091 101.570963 150.455569 101.96711 150.519667 102.070613 150.62317 102.1531 150.866953 102.40634M157.60676 38.5870928L163.349317 32.5760595C164.30606 31.579387 165.236007 30.5490893 166.345639 29.7384063 166.714466 29.4667776 167.04704 29.0737828 167.403257 28.7538179 168.457723 27.8117863 169.168581 26.6564448 170.067531 25.6203678 170.183117 25.4890193 170.247741 25.3030298 170.287145 25.1595972 170.329702 24.9925219 169.975587 25.1018039 169.731804 25.3645009 169.265254 25.8704553 168.820771 26.3916462 168.366305 26.9128371 167.958074 27.3699299 167.57979 27.8758844 167.135306 28.2935727 165.988897 29.3722067 164.809387 30.4119615 163.647741 31.4695797 163.44704 31.6466375 163.248441 31.8504904 163.074536 32.058021 162.483468 32.7315762 161.929177 33.4235201 161.325499 34.0881436 160.688196 34.8011033 160.005184 35.4809632 159.35317 36.1881436 158.444764 37.1879685 157.380841 38.1026795 156.661576 39.4377058 157.054571 39.0867426 157.350368 38.8550438 157.60676 38.5870928M86.4902627 111.873678C86.2312434 112.120613 86.0725744 112.501524 85.8713485 112.818336 86.1671454 112.882434 86.4477058 112.726918 86.6794046 112.452662 87.4900876 111.498546 88.3527846 110.666848 89.3494571 109.95021 89.8979685 109.560368 90.2667951 108.980858 90.5410508 108.328319 90.2941156 108.493292 90.1238879 108.575779 89.9830823 108.706602 88.8130298 109.748984 87.6366725 110.791366 86.4902627 111.873678M101.990123 97.1421016C101.905009 97.2303678 101.852995 97.3517338 101.663853 97.648056 102.572259 97.3060245 102.663678 96.6697723 103.017268 96.1937653 102.654746 96.4958669 102.316392 96.8158319 101.990123 97.1421016M188.520841 101.317566C187.920315 100.988669 187.301401 100.677636 186.688792 100.363975 186.14606 100.080788 185.563923 99.8364799 185.054816 99.5133625 183.729247 98.6538179 182.436778 97.760648 181.125919 96.8853415 180.903678 96.7398074 180.65937 96.5963748 180.415587 96.471331 179.620665 96.0688792 178.812084 95.6942732 178.023468 95.2702802 177.175482 94.8257968 176.355867 94.3224694 175.507881 93.8711559 174.31944 93.2217688 173.173555 92.4142382 171.704028 92.0427846 172.143257 92.338056 172.439054 92.5666025 172.758494 92.7494396L179.97951 96.8674781C181.177408 97.5567951 182.403152 98.2151138 183.460771 99.0930473 183.811208 99.382014 184.271454 99.6110858 184.671278 99.8790368 185.841331 100.671856 187.130648 101.083765 188.35324 101.704781 188.505604 101.781489 188.703678 101.799352 188.856567 101.799352 189.026795 101.802504 188.835026 101.488319 188.520841 101.317566M77.9035902 39.8246585C79.0284588 40.3763222 80.0435201 41.0194046 80.9760946 41.8153765 81.4883538 42.2446235 82.1403678 42.4642382 82.8386165 42.5740455 82.6221541 42.3785989 82.5007881 42.2325394 82.3415937 42.1232574 81.0401926 41.245324 79.7445709 40.3547811 78.4184764 39.5015412 78.1174256 39.3092469 77.708669 39.2514536 77.3550788 39.1264098 77.3613835 39.4311384 77.5804729 39.6659895 77.9035902 39.8246585M94.3729597 48.7555692C94.9246235 49.5546935 95.5677058 49.4874431 96.1162172 49.7159895 95.7321541 49.4354291 95.3454641 49.1853415 94.9456392 48.9478634 94.842662 48.8869177 94.7113135 48.8653765 94.3729597 48.7555692M143.578897 16.5703503C144.115324 15.0981961 144.664361 13.6228897 145.170315 12.1323468 145.285902 11.7908406 145.24965 11.3794571 145.27697 11.0043257 144.980648 11.0894396 144.81042 11.355289 144.737391 11.7115061 144.472067 12.9309457 144.094308 14.0742032 143.548424 15.1743783 143.25 15.778056 143.195359 16.4636953 143.262084 17.1614186 143.399212 16.9055517 143.509019 16.750035 143.578897 16.5703503M140.055289 29.8511559C139.414834 30.5798774 139.631821 31.1830298 139.540403 31.7746235 139.72324 31.3359194 139.872452 30.8998424 140.003275 30.4516813 140.040053 30.3355692 140.027968 30.2047461 140.055289 29.8511559M72.24331 67.3709107C72.8622242 67.3614536 73.4869177 67.3005079 74.0932224 67.3525219 75.6630998 67.4864974 77.2208932 67.6693345 78.7876182 67.8248511 79.0587215 67.852697 79.339282 67.8642557 79.614063 67.8584764 80.5035552 67.8432399 81.3940981 67.7943783 82.2898949 67.7943783 83.2471629 67.7943783 84.2102102 67.8495447 85.1674781 67.855324 86.5240455 67.8642557 87.9137128 68.0444658 89.3858669 67.6814186 88.8615236 67.6267776 88.4932224 67.5595271 88.120718 67.5537478L79.8147636 67.3005079C78.4277233 67.2611033 77.0438354 67.257951 75.696725 66.9773905 75.2454116 66.8796673 74.7368301 66.898056 74.2576708 66.8497198 72.8559194 66.6973555 71.5177408 66.937986 70.1490893 66.9653065 69.9757093 66.9710858 69.7923468 67.0414886 69.6583713 67.1118914 69.5028546 67.1912259 69.825972 67.3829947 70.1795622 67.3861471 70.8715061 67.3919264 71.5576708 67.37669 72.24331 67.3709107M187.874396 70.2785464C188.234816 70.3090193 188.621506 70.1692644 188.99979 70.1077933 188.8469 69.8429947 188.545324 69.7421191 188.182802 69.7515762 186.93289 69.7909807 185.731839 69.7058669 184.53394 69.4405429 183.875622 69.3002627 183.198914 69.4132224 182.531138 69.6417688 182.818004 69.717951 182.994536 69.7878284 183.183678 69.8062172 184.74725 69.9769702 186.308196 70.1503503 187.874396 70.2785464M169.448616 69.602049C168.585394 69.1565149 168.049492 69.5164098 167.454746 69.5742032 167.924448 69.6383012 168.385219 69.6782312 168.850718 69.69662 168.969982 69.7023993 169.098179 69.6661471 169.448616 69.602049M114.441804 2.59455342C114.59732 3.19507881 114.807478 3.7866725 114.905201 4.3871979 115.157916 5.94131349 115.355989 7.49910683 115.581909 9.05952715 115.624466 9.3280035 115.682259 9.59963222 115.74951 9.86758319 115.986988 10.7271278 116.246532 11.5777408 116.462469 12.4462172 116.691541 13.3756392 116.874378 14.3239755 117.099772 15.2533975 117.41711 16.5705604 117.581559 17.96338 118.288739 19.307338 118.215184 18.7803678 118.187863 18.4083888 118.108529 18.0453415L116.34373 9.92222417C116.044781 8.57196147 115.715884 7.22485114 115.657566 5.85304729 115.642855 5.39595447 115.499422 4.90208406 115.435324 4.42345009 115.246708 3.02432574 114.685587 1.78964974 114.328844.46408056 114.283135.295954466 114.164396.143590193 114.069825.0280035026 113.954238-.102819615 113.847058.250770578 113.926918.598056042 114.088214 1.26845884 114.271051 1.93308231 114.441804 2.59455342M141.789772 122.334851C141.771384 121.664448 141.50028 121.032925 141.113065 120.445009 141.109912 120.737653 141.085744 120.923117 141.109912 121.119089 141.329527 122.673205 141.530753 124.227846 141.78662 125.785114 141.844413 126.135552 142.076112 126.485989 142.225849 126.828021 142.448091 126.617338 142.469107 126.300525 142.375061 125.950088 142.030403 124.745884 141.82655 123.566375 141.789772 122.334851M76.7607005 95.0997898C77.8456392 94.4750963 78.9463398 93.99331 80.1321541 93.6638879 80.7752364 93.4810508 81.3237478 93.0665149 81.7992294 92.5484764 81.5155166 92.6152014 81.3269002 92.6367426 81.1472154 92.703993 79.6897723 93.2924343 78.2270753 93.8714186 76.7817163 94.4929597 76.4528196 94.6300876 76.1754116 94.9379685 75.8738354 95.1638879 76.1328546 95.334641 76.4433625 95.282627 76.7607005 95.0997898M93.0348336 26.8911909C93.3668827 27.4796322 93.90331 27.9062522 94.5222242 28.244606 94.381944 27.9855867 94.3209982 27.8059019 94.2080385 27.6503853 93.2843958 26.3820841 92.3728371 25.0990718 91.4192469 23.846007 91.205937 23.565972 90.8397373 23.367373 90.5444658 23.1267426 90.4467426 23.4225394 90.5749387 23.7120315 90.8245009 23.9742032 91.6903503 24.8794571 92.4280035 25.8277933 93.0348336 26.8911909M103.248967 37.9955517C103.49275 38.9344308 104.117443 39.0962522 104.55352 39.4923993 104.294501 39.1051839 104.01394 38.7363573 103.718669 38.3769877 103.642487 38.2818914 103.523222 38.2183187 103.248967 37.9955517M99.5391594 110.267233C98.7347811 111.388949 97.9571979 112.537986 96.9731349 113.497881 96.6437128 113.812067 96.3657793 114.251296 96.0615762 114.620123 95.1468651 115.69613 94.6046585 116.939212 93.8549212 118.091926 93.7661296 118.235359 93.726725 118.43028 93.7051839 118.57634 93.6867951 118.750245 94.0193695 118.591576 94.2232224 118.298932 94.6167426 117.729405 94.9881961 117.153047 95.3633275 116.577215 95.7048336 116.061804 96.0037828 115.512767 96.3873205 115.037811 97.3750613 113.808914 98.3964273 112.617846 99.4078109 111.41049 99.575937 111.199807 99.7403853 110.974413 99.8895972 110.739562 100.374536 109.992977 100.834781 109.23063 101.334431 108.486673 101.870858 107.694904 102.452995 106.926778 102.9931 106.13711 103.761226 105.018546 104.681716 103.966708 105.211839 102.53711 104.870333 102.945342 104.608687 103.213818 104.395377 103.515394L99.5391594 110.267233zM160.49028 24.5841331C161.499037 23.3830823 162.519877 22.1851839 163.504466 20.9594396 163.730385 20.6794046 163.830736 20.2801051 163.989405 19.9354466 163.684676 19.9144308 163.431961 20.1030473 163.239142 20.4114536 162.571891 21.4716988 161.831611 22.4168827 160.944221 23.2638179 160.454028 23.7277408 160.170315 24.3524343 159.990105 25.0317688 160.20972 24.8368476 160.368389 24.7301926 160.49028 24.5841331M152.385131 36.4078109C152.461313 36.3132399 152.491786 36.1818914 152.637846 35.8592995 151.787233 36.3221716 151.784081 36.9684063 151.498266 37.4895972 151.818231 37.1423117 152.110876 36.7766375 152.385131 36.4078109M75.5077408 48.0362522C75.754676 48.1555166 76.0168476 48.2621716 76.2727145 48.3472855 77.1170228 48.6367776 77.9707881 48.8957968 78.8150963 49.2068301 79.7108932 49.5299475 80.5982837 49.9108581 81.494606 50.2434326 82.7650088 50.7157618 84.0122942 51.3588441 85.5207005 51.5264448 85.0420665 51.2915937 84.7163222 51.1029772 84.3748161 50.9690018L76.6509982 47.8928196C75.3674606 47.3810858 74.0660595 46.9056042 72.8954816 46.180035 72.5087916 45.9420315 72.0207005 45.7775832 71.5883012 45.5705779 70.3168476 44.9422067 68.9818214 44.719965 67.6861996 44.2718039 67.5249037 44.2166375 67.3263047 44.2260946 67.1802452 44.2444834 67.0031874 44.2654991 67.2411909 44.5492119 67.570613 44.680035 68.22 44.9180385 68.8688616 45.1408056 69.5214011 45.3688266 70.1003853 45.5705779 70.70669 45.7318739 71.2588792 45.9819615 72.6916287 46.6460595 74.09338 47.3537653 75.5077408 48.0362522M189.725044 92.7737653C188.538704 92.3833975 187.441681 91.8895271 186.405604 91.2312084 185.838704 90.8749912 185.164623 90.7499475 184.457968 90.7378634 184.698599 90.9023117 184.841506 91.0305079 185.012259 91.1156217 186.420841 91.8075657 187.828897 92.5058144 189.261646 93.1672855 189.587916 93.313345 190.001926 93.3164974 190.368126 93.3869002 190.319264 93.0847986 190.069177 92.8898774 189.725044 92.7737653M166.067968 83.1540105C166.180928 83.1997198 166.309124 83.2028722 166.662715 83.2664448 166.007548 82.5508581 165.379177 82.7058494 164.803345 82.5534851 165.217881 82.7788792 165.641349 82.9711734 166.067968 83.1540105M122.415604 121.978266C122.083555 123.517671 121.751506 125.050771 121.452557 126.599107 121.388459 126.952697 121.489335 127.352522 121.504571 127.732907 121.790911 127.608389 121.919107 127.321524 121.949054 126.958476 122.040998 125.709615 122.254308 124.523275 122.637846 123.362154 122.851681 122.724851 122.805972 122.039212 122.647303 121.35042 122.5438 121.627828 122.458687 121.794904 122.415604 121.978266M124.025149 107.73725C124.000981 107.859142 124.034606 107.989965 124.052469 108.340403 124.588897 107.52972 124.293625 106.95704 124.296778 106.369124 124.177513 106.823065 124.095026 107.277005 124.025149 107.73725M192.538266 61.2531699C191.855254 61.3388091 191.175394 61.4480911 190.49606 61.5515937 189.889229 61.6430123 189.27662 61.7895972 188.667163 61.8295271 187.094133 61.9114886 185.524256 61.9482662 183.951751 62.0086865 183.680648 62.021296 183.399562 62.0486165 183.132137 62.0974781 182.251051 62.2314536 181.37627 62.407986 180.492032 62.5304028 179.544221 62.6643783 178.581173 62.7437128 177.632837 62.8745359 176.288354 63.0484413 174.886077 63.0668301 173.474869 63.6305779 174.008144 63.6121891 174.380123 63.6247986 174.749475 63.5817163L183.00972 62.6738354C184.387303 62.5214711 185.759632 62.3323292 187.134063 62.4237478 187.591156 62.4542207 188.093958 62.3628021 188.572592 62.3538704 189.987478 62.3044834 191.273643 61.8778634 192.629685 61.6614011 192.800438 61.6340806 192.964886 61.5337303 193.08993 61.4449387 193.232837 61.3445884 192.891856 61.2074606 192.538266 61.2531699"/>
    <path fill="#FFE000" d="M168.119737 64.4445709C168.320963 64.4230298 168.54373 64.3804729 168.701349 64.3105954 168.839002 64.2522767 168.899422 64.1335377 169.046532 63.9874781 168.680333 63.9995622 168.412382 63.9932574 168.15021 64.0205779 167.788214 64.0594571 167.426743 64.0983363 167.064746 64.1372154 164.967898 47.0687391 151.32972 33.5760946 134.18979 31.7125219L134.855464 26.8394921C134.879632 26.6382662 134.900648 26.4097198 134.867023 26.2389667 134.839702 26.0929072 134.745657 26.007268 134.639002 25.8307356 134.559667 26.1901051 134.489264 26.445972 134.44986 26.7081436 134.221839 28.3605079 133.991716 30.0133975 133.762644 31.6668126 132.564221 31.5507005 131.35056 31.4871278 130.121664 31.4871278 114.317811 31.4871278 100.823065 41.3382662 95.4183363 55.2312609L90.6325219 53.3188266C90.4439054 53.2489492 90.2274431 53.175394 90.0535377 53.16331 89.9038004 53.1543783 89.8008231 53.2274081 89.5995972 53.2883538 89.9284939 53.4464974 90.163345 53.5841506 90.4071278 53.6813485 92.0253415 54.3317863 93.6430298 54.9811734 95.260718 55.6310858 93.7302452 59.7039405 92.8880385 64.1135727 92.8880385 68.7212785 92.8880385 72.6795972 93.5111559 76.4918564 94.6554641 80.0703152L87.9109807 82.300613C86.5906655 82.7303853 85.2892644 83.2027145 83.9269177 83.4007881 83.4782312 83.4648862 83.0001226 83.656655 82.5340981 83.7696147 81.1591419 84.1111208 79.9917163 84.7936077 78.711331 85.2848511 78.5468827 85.3515762 78.4066025 85.4797723 78.3062522 85.5895797 78.1812084 85.7235552 78.5468827 85.7902802 78.8852364 85.6720665 79.5346235 85.4398424 80.1777058 85.1929072 80.8176357 84.9491243 81.393993 84.7331874 81.9640455 84.464711 82.5519615 84.3034151 84.0729772 83.8915061 85.5971454 83.5321366 87.1276182 83.1417688 87.3924168 83.0745184 87.6577408 82.9862522 87.9109807 82.8916813 88.7458319 82.5717163 89.5628196 82.2181261 90.4039755 81.9139229 91.3060771 81.5871278 92.2270928 81.3065674 93.126042 80.9866025 93.6661471 80.7937828 94.2225394 80.6267075 94.7789317 80.4359895 99.6897898 95.2578809 113.652137 105.955429 130.121664 105.955429 134.519212 105.955429 138.736025 105.187303 142.652312 103.787653L142.917636 104.506392C142.984886 104.698161 143.078932 104.908844 143.185587 105.042294 143.280158 105.161559 143.402049 105.189405 143.585412 105.298687 143.481384 104.948249 143.42359 104.68345 143.332172 104.435989 143.236025 104.173818 143.139877 103.911121 143.04373 103.648424 157.23725 98.3955342 167.355814 84.7410683 167.355814 68.7212785 167.355814 67.3116462 167.270701 65.9225044 167.117811 64.5538529L168.119737 64.4445709zM76.4528722 74.8511033C76.16338 74.8174781 75.9742382 74.7717688 75.7850963 74.7775482 74.2157443 74.8237828 72.6484939 74.8721191 71.0728371 74.9603853 70.7192469 74.9792995 70.3504203 75.1742207 69.9905254 75.286655 70.1765149 75.5304378 70.4843958 75.5856042 70.8442907 75.5246585 72.0784413 75.3108231 73.2768651 75.232014 74.5020841 75.3265849 75.1724869 75.3780736 75.8250263 75.1710683 76.4528722 74.8511033"/>
    <path fill="#FFE000" d="M89.4166025 73.0679159C90.3307881 73.3910333 90.8125744 72.9612609 91.3915587 72.8236077 90.9192294 72.8178284 90.4563573 72.8451489 89.9924343 72.8882312 89.8736953 72.9029422 89.7549562 72.9612609 89.4166025 73.0679159M152.790473 128.574431C152.552469 128.004378 152.26613 127.446935 152.083292 126.867426 151.617268 125.361646 151.202732 123.843257 150.764028 122.334851 150.68732 122.07268 150.59275 121.810508 150.486095 121.56042 150.135657 120.740806 149.757898 119.93275 149.419019 119.101051 149.062802 118.21366 148.754396 117.302102 148.401331 116.412609 147.901156 115.156392 147.541261 113.797198 146.660701 112.562522 146.803608 113.074781 146.882942 113.43993 147.014291 113.790368L149.891349 121.584588C150.373135 122.883363 150.888546 124.1669 151.132329 125.520315 151.214816 125.971103 151.424974 126.44028 151.550018 126.90683 151.93986 128.263398 152.662802 129.409282 153.205009 130.674431 153.269107 130.82732 153.409387 130.967601 153.519194 131.064799 153.650018 131.183538 153.707811 130.812084 153.576462 130.482662 153.3269 129.842207 153.055797 129.208581 152.790473 128.574431M109.463905 16.9969702C109.576865 17.6615937 109.933608 18.2468827 110.397005 18.7770053 110.360228 18.4848862 110.360228 18.2957443 110.308214 18.1097548 109.878441 16.6008231 109.458126 15.0861121 108.988949 13.5834851 108.881769 13.241979 108.610665 12.9309457 108.412592 12.6078284 108.220298 12.8516112 108.241839 13.1684238 108.384746 13.4978459 108.891226 14.6437303 109.260053 15.7901401 109.463905 16.9969702M115.267881 30.9240105C115.170158 31.8933625 115.703958 32.2564098 115.980841 32.7802277 115.868406 32.3199825 115.730753 31.8812785 115.578914 31.4394221 115.535832 31.3264623 115.447566 31.2261121 115.267881 30.9240105M89.9558669 95.9594921C89.4929947 96.2242907 89.154641 96.3918914 88.8525394 96.5994221L81.9851138 101.281208C80.838704 102.058792 79.7175131 102.872102 78.4644483 103.436375 78.0467601 103.622364 77.6385289 103.93655 77.2208406 104.17718 75.9982487 104.878581 75.0625219 105.859492 73.9654991 106.689089 73.8283713 106.792592 73.7274956 106.959667 73.6607706 107.096795 73.5788091 107.252312 73.9471103 107.212907 74.2397548 107.005377 74.8035026 106.609755 75.349387 106.192067 75.9010508 105.78331 76.3917688 105.414483 76.8646235 104.999947 77.3858144 104.686287 78.7329247 103.869299 80.1047285 103.101173 81.4639229 102.305727 81.6987741 102.165447 81.9299475 102.00993 82.1469352 101.848634 82.8598949 101.309054 83.5518389 100.747933 84.2774081 100.220438 85.0518389 99.6598424 85.8593695 99.1354991 86.6369527 98.580683 87.7402802 97.7941681 88.9712785 97.1174606 89.9558669 95.9594921M177.717951 35.5235201C178.023205 35.3375306 178.257531 34.9965499 178.519702 34.7280736 178.242294 34.6030298 177.940718 34.6976007 177.654378 34.9203678 176.663485 35.6853415 175.642644 36.3189667 174.520403 36.8102102 173.904641 37.0813135 173.42338 37.5688792 173.018301 38.1483888 173.292032 38.0412084 173.474869 37.9954991 173.642995 37.8983012 175.005342 37.1149387 176.371366 36.3405079 177.717951 35.5235201M160.782715 46.951366C161.200403 46.7317513 161.593398 46.4911208 161.983765 46.2378809 162.087268 46.1680035 162.160298 46.0613485 162.407233 45.8081086 161.45049 45.9515412 161.224571 46.5552189 160.782715 46.951366M86.9504553 32.0091594C87.4716462 32.4604729 88.0080736 32.8870928 88.5450263 33.3231699 89.0199825 33.7161646 89.5385464 34.0729072 89.9683187 34.4995271 91.0837303 35.6091594 92.1628897 36.7518914 93.2599124 37.8767601 93.4522067 38.0748336 93.6597373 38.2639755 93.8693695 38.4347285 94.5681436 38.9958494 95.2811033 39.5317513 95.9635902 40.1049562 96.6986165 40.720718 97.3963398 41.3790368 98.1282137 42.0011033 99.1611384 42.8785114 100.112102 43.9093345 101.474974 44.5797373 101.106147 44.1988266 100.862364 43.9119615 100.584956 43.6650263L94.3790018 38.1363047C93.3518564 37.215289 92.2910858 36.3221191 91.4373205 35.2398074 91.1567601 34.8804378 90.7516813 34.5636252 90.4222592 34.2158144 89.4376708 33.1981261 88.2613135 32.5271979 87.1942382 31.6676532 87.0602627 31.5578459 86.8742732 31.4969002 86.7276883 31.4695797 86.5574606 31.4270228 86.679352 31.777986 86.9504553 32.0091594M173.624606 107.310841C172.646322 106.535884 171.780473 105.698406 171.033363 104.72275 170.618827 104.192102 170.030385 103.841138 169.368914 103.594729 169.540193 103.82958 169.628459 103.999807 169.765587 104.137461 170.851051 105.271261 171.935989 106.411366 173.057706 107.517846 173.307268 107.773713 173.695009 107.911366 174.020753 108.106287 174.075394 107.804186 173.910946 107.533082 173.624606 107.310841M158.85352 94.840718C158.938634 94.9258319 159.066305 94.9746935 159.371033 95.1517513 159.002207 94.2554291 158.353345 94.1850263 157.868406 93.8498249 158.182592 94.2039405 158.508862 94.5265324 158.85352 94.840718M154.345114 21.3560595C154.985044 20.1334676 155.598179 18.8898599 156.438809 17.8017688 156.719895 17.4387215 156.930053 16.9695447 157.185919 16.5670928 157.935657 15.3691944 158.301331 14.064641 158.880841 12.8178809 158.953345 12.6655166 158.965954 12.4648161 158.962802 12.3150788 158.960175 12.1443257 158.651769 12.3455517 158.490998 12.6655166 158.182592 13.2812785 157.889947 13.9091243 157.600455 14.5280385 157.335131 15.0828546 157.109737 15.6744483 156.805009 16.1982662 155.994326 17.5516813 155.14634 18.8688441 154.317268 20.2064974 154.174361 20.4381961 154.043538 20.6882837 153.93373 20.9352189 153.552294 21.7459019 153.205009 22.566042 152.815166 23.3704203 152.394326 24.2304904 151.924623 25.0684939 151.498004 25.9280385 150.897478 27.1411734 150.126725 28.3149037 149.806235 29.7991419 150.08732 29.3478284 150.300105 29.0436252 150.477163 28.7173555L154.345114 21.3560595zM102.072504 120.408757C101.889667 120.716112 101.843433 121.130648 101.734151 121.490543 102.038879 121.475306 102.261121 121.243608 102.413485 120.914711 102.925744 119.774081 103.52627 118.734851 104.291769 117.771278 104.708932 117.247461 104.904378 116.586515 104.98634 115.888266 104.797723 116.110508 104.657443 116.241331 104.55394 116.403152 103.718564 117.729247 102.877408 119.061121 102.072504 120.408757M110.756637 104.14056C111.54 103.567356 111.451208 102.927426 111.658739 102.369457 111.393415 102.759825 111.155937 103.155972 110.93317 103.567356 110.875377 103.670858 110.856988 103.804834 110.756637 104.14056M177.474221 80.0357968C178.815552 80.3652189 180.172119 80.6541856 181.430963 81.2121541 181.848651 81.3949912 182.354606 81.4837828 182.808546 81.6361471 184.152504 82.0748511 185.509072 82.1147811 186.856708 82.3738004 187.024308 82.4074256 187.219229 82.370648 187.35951 82.330718 187.530263 82.2855342 187.256007 82.0354466 186.911349 81.9561121 186.237793 81.8069002 185.563713 81.678704 184.887005 81.5447285 184.283853 81.4196848 183.658634 81.349282 183.076497 81.1727496 181.568091 80.7182837 180.080701 80.2123292 178.580701 79.7336953 178.321681 79.6548862 178.050578 79.5850088 177.785254 79.5329947 176.904168 79.3648687 176.023082 79.2251138 175.151979 79.0391243 174.215727 78.8378984 173.282627 78.5846585 172.350578 78.3808056 171.02711 78.0939405 169.701541 77.6305429 168.181051 77.6762522 168.689107 77.8380736 169.04007 77.9783538 169.399965 78.063993L177.474221 80.0357968zM71.258669 54.5898074C71.3500876 54.8824518 71.6243433 55.0411208 71.9810858 55.1078459 73.2126095 55.3274606 74.3647986 55.662662 75.4865149 56.1717688 76.095972 56.4460245 76.785289 56.4764974 77.4798599 56.3913835 77.2208406 56.260035 77.0621716 56.15338 76.8761821 56.0955867 75.3887916 55.6048687 73.8950963 55.1078459 72.389317 54.6539054 72.0451839 54.5504028 71.633275 54.6081961 71.258669 54.5898074M92.2115937 59.5949212C91.7697373 59.4304729 91.3247285 59.2964974 90.8765674 59.1798599 90.7604553 59.1467601 90.6296322 59.1651489 90.2734151 59.1467601 91.022627 59.7656743 91.6231524 59.5281961 92.2115937 59.5949212M128.700841 14.6498774C128.8138 13.0831524 128.932539 11.5195797 129.011874 9.94654991 129.02711 9.59033275 128.874746 9.20259194 128.801191 8.83429072 128.539545 8.99558669 128.448126 9.30031524 128.472294 9.66336252 128.557933 10.9043433 128.509072 12.110648 128.289457 13.3180035 128.167566 13.9763222 128.304694 14.6498774 128.557933 15.3113485 128.621506 15.018704 128.685604 14.8447986 128.700841 14.6498774M129.014816 30.3783363C129.06683 29.908634 129.085219 29.4457618 129.090998 28.9823643 129.090998 28.8604729 129.047916 28.7354291 128.978564 28.391296 128.557723 29.2629247 128.938634 29.7898949 129.014816 30.3783363"/>
    <path fill="#231916" d="M90.2303327 79.7071629C90.2602802 79.4250263 90.0958319 79.2395622 89.8588792 79.29L84.2392644 80.4815937C84.0033625 80.5315061 83.8378634 80.7868476 83.8073905 81.0689842L83.2552014 86.2572504 89.6781436 84.8954291 90.2303327 79.7071629zM94.917373 69.0674081C96.6648336 68.6970053 96.2697373 71.9780911 94.5217513 72.3484939L81.1567776 75.1824694C79.409317 75.5528722 79.7103678 72.2917513 81.4578284 71.9213485L86.5110683 70.8500701 86.9072154 67.1281786 83.1763923 67.9188967C81.5235026 68.2693345 81.8129947 65.1216988 83.465359 64.7712609L87.2434676 63.970035 87.4898774 61.6577758C87.7357618 59.3455166 90.8944308 58.731331 90.6538004 60.9868476L90.4079159 63.2991068 94.5164974 62.4280035C96.122627 62.0875482 95.7390893 65.2556743 94.0856743 65.6061121L90.0716637 66.4572504 89.6749912 70.1791419 94.917373 69.0674081zM92.3592294 87.0280035C92.1369877 89.1143433 89.4438179 90.1267776 89.3235026 88.2227496L82.853275 89.5945534C82.3063398 91.6945534 79.7103678 91.8038354 79.9383888 89.6612785L80.8031874 81.5402627C81.0911033 78.833958 82.6037128 77.631331 84.1152715 77.3108406L90.6327846 75.9290543C92.2861996 75.5786165 93.511944 76.200683 93.224028 78.9069877L92.3592294 87.0280035zM97.5322592 91.3325569C97.2984588 93.531331 95.0655342 94.5563748 94.2007356 93.1409632 93.5303327 92.0707356 92.096007 92.0991068 90.3953065 92.4595271 88.9788441 92.7600525 89.2488967 90.2223993 90.6658844 89.9218739 91.6100175 89.7216988 93.3989842 89.398056 94.4192995 89.7878984L97.8595797 57.4751138C97.8958319 57.1362347 97.7250788 57.0069877 97.4891769 57.0574256L81.4315587 60.461979C81.1956567 60.5118914 80.9886515 60.7209982 80.9523993 61.0598774L80.1238529 68.8414886C79.409317 75.5528722 78.6390893 83.6533975 75.0637828 92.5136427 74.0686865 94.9294046 73.2207005 97.2584764 71.4338354 96.7010333 70.6315587 96.4304553 70.2611559 95.5714361 70.8538004 94.3435902 75.0485464 85.2968301 76.0263047 76.5453415 76.7707881 69.5528722L77.641366 61.3756392C77.941366 58.5563748 79.8317338 57.2733625 81.2492469 56.9728371L98.5819965 53.2977058C100.234886 52.947268 101.471664 54.3385114 101.255201 56.368634L97.5322592 91.3325569zM69.1273555 70.2364098C67.7854991 68.0954291 66.5918039 65.8682837 64.8905779 63.6385114 64.1965324 62.7931524 64.5522242 61.6157443 65.2378634 60.8092644 66.9763923 58.7870228 68.0539755 60.3768651 69.1840981 61.9010333 70.0320841 63.0442907 70.7376883 64.2185464 71.361331 65.2982312 72.1788441 66.7236252 73.6100175 68.4590018 71.5110683 70.3924518 70.6956567 71.1164448 69.7157968 71.2141681 69.1273555 70.2364098zM68.5357618 97.039387C71.4690368 96.8040105 74.4469702 97.8810683 77.5615061 98.5430648 84.1504729 99.9574256 91.2217513 99.0090893 98.0650088 93.6999825 100.327881 91.9519965 101.531559 95.3901751 99.3154466 97.1276532 93.6369877 101.473713 87.5434676 103.206988 81.6900525 103.125026 74.9560771 103.064606 70.7366375 100.210665 66.8397898 101.257776 63.7993345 102.067933 61.7818214 104.975989 60.8644834 106.217496 59.0429422 108.588074 56.698634 106.329405 58.4849737 103.856375 60.1530998 101.628704 62.7721891 99.1435902 65.1049387 98.0428897L66.6301576 83.7190718 61.7660595 84.7504203C59.6876007 85.1912259 60.0548511 81.3096147 62.1327846 80.8688091L67.2338354 79.7870228C68.0324343 78.3505954 70.5711384 77.9223993 70.3010858 80.4605779L68.5357618 97.039387zM130.360403 88.2301576C130.017846 91.4445184 126.003835 92.2956567 126.345867 89.081296L130.068809 54.1184238C130.164956 53.2157968 129.61697 52.7250788 128.908739 52.8753415L124.044116 53.90669C121.447093 54.4578284 121.939387 49.8338354 124.536935 49.2832224L130.204361 48.0811208C133.037811 47.4805954 134.629755 48.1352364 134.179492 52.3646585L130.360403 88.2301576zM190.054466 54.3522767C188.830298 52.4067426 186.868476 50.4528021 186.868476 50.4528021 185.932224 49.2732925 187.648161 47.0356392 188.884939 47.9860771 189.569002 48.5025394 191.289667 50.1218039 192.277933 51.675394 193.313485 53.2205779 191.214011 55.5948336 190.054466 54.3522767M187.897198 56.408669C188.283363 57.9801226 186.450788 59.5809982 185.667426 58.699387 185.337478 58.3284588 184.461646 56.5852014 182.482487 54.3596322 181.705429 53.4212785 183.202802 51.0648862 184.540981 51.9386165 185.843433 52.7093695 187.709107 55.5664623 187.897198 56.408669M182.016988 73.473993C183.092995 72.4746935 185.07951 70.2895797 184.650788 69.112697 184.445359 68.4391419 183.590543 68.235289 182.892294 69.1547285 182.082137 70.26331 181.818389 72.3039405 182.016988 73.473993M238.915061 71.0561296C232.796848 76.4871278 217.972329 83.4890543 205.187916 84.7662872 197.072154 85.5496497 185.082662 84.5645359 180.567426 78.8524518 173.826095 83.2032399 167.81296 79.8480736 167.201926 72.1510508 166.931349 68.1843257 168.038354 63.430035 169.751138 59.0429947 170.7 56.6372154 172.837303 52.600613 175.131699 50.1302102 169.425919 52.9936077 165.37986 55.0090193 161.816112 55.1035902 159.31944 55.13669 158.029072 54.2529772 157.183713 51.7862522 156.262172 49.1703152 159.836953 46.3731173 160.735902 48.7736427 161.1 49.6878284 161.688441 50.6655867 162.945184 50.5641856 165.748687 50.6866025 169.457443 48.7978109 178.317163 44.4937828 184.501576 41.4743433 185.894396 40.9584063 189.017863 40.240718 191.47986 39.6643608 191.04641 44.1648862 188.584939 44.7422942 186.411384 45.2030648 186.489142 44.9114711 183.442382 46.2186515 180.784413 47.3335377 177.207531 51.0133975 174.464974 56.3897548 171.841681 61.5207531 170.38056 66.571366 170.969527 70.5801226 171.82014 76.4629597 175.584063 77.0981611 179.045359 75.3717163 178.61296 72.9281086 179.285989 69.6438704 180.819089 67.3894046 183.120841 63.9801226 186.843783 64.1277583 187.753765 66.8561296 188.469877 68.7990368 187.86042 72.7867776 183.729247 76.4734676 187.339755 80.2830998 196.447986 81.8792469 205.873555 80.9277583 205.873555 80.9277583 224.105779 79.2118214 237.663573 67.6284588 239.590193 66.0070928 240.800175 69.3885289 238.915061 71.0561296"/>
    <g transform="translate(0 123.623)">
      <mask id="b" fill="white">
        <use xlink:href="#a"/>
      </mask>
      <path fill="#231916" d="M38.5267776,5.35255692 C37.3441156,3.96971979 35.5015587,2.72768827 35.5015587,2.72768827 C34.5994571,1.92068301 35.8751138,-0.0737127846 36.9910508,0.505796848 C37.6414886,0.822084063 39.2376357,1.89021016 40.1875482,2.95886165 C41.2094396,4.0574606 39.6521716,6.20211909 38.5267776,5.35255692 Z M35.2898249,9.34975482 C35.0134676,9.09073555 34.0782662,7.88285464 32.1868476,6.37865149 C31.4554991,5.76288967 32.5514711,3.67077058 33.7551489,4.14099825 C34.9199475,4.62015762 36.756725,6.63451839 36.9931524,7.26499124 C37.4329072,8.48758319 36.0216988,9.96604203 35.2898249,9.34975482 Z M29.8005079,13.0994921 C32.7185464,7.80877408 35.9843958,9.61087566 35.0407881,12.760613 C34.6299299,14.1171804 33.4808932,15.6308406 31.381944,16.4394221 C29.4169702,20.6210333 26.6171454,27.2935377 18.3831699,36.1159545 C13.0698599,41.7786515 6.77563923,47.0147285 2.15690018,50.0814536 C-0.0124518389,51.5383713 -0.943450088,48.152732 1.26425569,46.6863573 C5.43640981,43.8959895 11.5162697,38.8868827 16.3477933,33.8252364 C22.9803678,26.8395972 25.9341331,21.2231349 27.811366,17.1502802 L12.6921016,20.3567601 C10.5148687,20.818056 10.8322067,17.1208581 13.0094396,16.6595622 L29.8005079,13.0994921 Z" mask="url(#b)"/>
    </g>
    <path fill="#231916" d="M53.4458669 153.710753C51.3280035 153.978179 52.0062872 152.247005 53.6870228 151.799895 54.8970053 151.498319 56.3350088 151.555587 57.6842207 151.723713 56.1863222 152.947881 54.7577758 153.523713 53.4458669 153.710753M92.4442907 122.851208C91.1523468 122.852785 90.4052364 122.375201 90.1388616 122.024238 89.3733625 121.007075 90.7903503 119.118809 91.7928021 120.402872 92.1716112 120.776427 92.4947285 121.660665 92.4442907 122.851208M107.698581 148.331769C103.13028 152.703047 97.4775657 155.126165 92.3523468 156.168021 85.9209982 157.50725 81.0395622 157.12056 77.0759895 156.034046 79.699282 154.548757 82.4922767 152.727215 85.1423643 150.755937 92.8887741 145.074851 99.1131173 138.357163 104.002434 128.475026 106.561629 123.350333 105.227128 120.185359 101.368634 121.094816 101.368634 121.094816 99.3090893 121.531419 95.1400876 122.505499 95.2914011 119.661016 94.0998074 117.645604 92.7075131 117.169597 90.5518214 116.356813 87.6332574 119.15296 87.404711 122.01373 87.2849212 123.854186 88.359352 125.894291 91.5637303 126.121786 90.4183713 128.678354 88.3877233 131.332119 83.3344834 135.261541 81.3069877 136.825114 82.5343082 139.922312 84.5292294 138.319335 88.4780911 135.123363 92.6187215 131.206025 94.4292294 125.967846L100.803835 124.616532C101.853047 124.393765 102.492977 125.166095 101.420648 127.388511 97.1791419 136.181506 91.1549737 142.448932 84.1961296 147.508476 80.4416637 150.300946 76.411366 152.470823 73.2474431 154.003923 73.0199475 154.115306 72.8266025 154.263993 72.6547986 154.430543 71.1064623 153.737548 69.7015587 152.982032 68.3775657 152.269072 66.1850963 151.10007 64.2390368 150.107075 62.204711 149.585359L62.2488441 149.530718C63.9705604 145.854536 65.522049 139.129492 65.8068126 137.163468 66.337986 133.602872 65.3712609 131.267496 61.8343082 132.017758 55.4260771 133.330718 47.7689842 134.954186 46.6803678 135.184834 43.1392119 135.981856 41.7632049 139.267145 41.6266025 142.335972 41.5005079 144.948231 41.4174956 152.859615 41.5183713 156.194816 41.5577758 158.681506 44.7653065 157.456813 44.7653065 154.962242 44.6954291 150.621961 44.8435902 143.876427 44.9949037 141.031419 45.0400876 139.887636 45.5864974 139.04648 46.7518214 138.799019L61.5994571 135.650858C62.6097898 135.437023 62.7343082 136.407951 62.5914011 137.390963 62.1348336 140.255412 60.8670578 145.741051 59.5110158 148.841401 57.1462172 148.571349 54.0574256 148.319159 51.7530473 149.98676 48.3731874 152.472925 48.4845709 157.847706 54.1299299 156.559965 56.3455166 156.090263 58.2999825 154.85979 60.2523468 152.585359 60.3248511 152.615306 60.3590018 152.65366 60.4362347 152.637373 62.4463923 153.02669 64.4213485 154.105849 66.7209982 155.341576 72.2954291 158.287986 79.2337828 161.988336 92.0108406 159.369772 97.6026095 158.230193 103.882644 155.627916 108.879142 150.803748 110.483695 149.283257 109.264781 146.820736 107.698581 148.331769M106.835412 116.850578C105.597583 116.341471 104.511068 118.341646 105.238214 119.004694 107.041891 120.617128 107.933485 121.87965 108.248196 122.130788 108.942242 122.755482 110.431208 121.26021 109.9862 120.083853 109.749772 119.453905 107.961331 117.337618 106.835412 116.850578M112.932872 115.60324C112.026567 114.479422 110.435674 113.365587 109.824641 113.041419 108.752312 112.407268 107.447233 114.317075 108.305201 115.177671 108.305201 115.177671 110.094694 116.567863 111.233748 118.004816 112.319737 118.86331 113.911156 116.75648 112.932872 115.60324M142.131489 115.763327C142.156182 115.531629 142.058984 115.370333 141.825709 115.420245L134.402417 116.994326C134.318354 117.782417 134.190683 118.626725 134.097163 119.508336L133.939019 120.9931 141.751103 119.337058 142.131489 115.763327zM141.449527 122.167356L133.52028 123.849142C133.304869 125.165254 133.001191 126.590123 132.663363 127.977163L141.019755 126.205534 141.449527 122.167356zM131.062487 121.603082C131.111874 121.138634 131.205394 120.62007 131.25951 120.109387 131.314676 119.236182 131.403468 118.400806 131.487531 117.612189L123.791559 119.243538C123.597163 119.285044 123.422207 119.503608 123.397513 119.735832L123.017128 123.309037 131.062487 121.603082zM122.715552 126.13986L122.285779 130.178039 129.748476 128.595552C129.80627 128.402207 129.914501 128.106935 129.982802 127.82007 130.256532 126.67366 130.45303 125.543012 130.644799 124.458599L122.715552 126.13986zM131.802767 131.062802C131.011524 133.49958 129.992259 135.937933 128.608897 138.227601 133.420981 140.836708 139.02063 141.055797 145.176673 139.614116 146.264764 139.383468 146.715026 140.149492 146.577373 141.085744 146.316252 143.182592 144.591909 143.321821 143.274746 143.555096 137.037793 144.696252 131.618354 144.212364 126.578249 141.243888 123.486305 145.302032 119.883678 147.744588 115.941121 149.442137 114.784729 149.95965 113.428687 150.564378 113.218004 148.976112 113.117128 148.135482 113.585779 146.947566 114.654956 146.539335 118.334291 145.169632 121.494011 143.320245 124.380525 139.75965 123.711173 139.265779 123.192609 138.786095 122.81958 138.366305 121.592785 139.896778 120.278774 141.536532 119.420806 140.312364 119.096637 139.790123 119.185429 138.955271 119.876322 138.174011 119.915201 138.16613 121.560736 136.274186 122.6462 134.638109 123.601366 133.164904 125.251103 133.722872 124.844974 135.396252 125.290508 135.846515 125.883152 136.356147 126.474221 136.865779 127.409422 135.215517 128.199615 133.505884 128.848476 131.689072L121.930088 133.155972C121.281226 134.972785 119.119755 134.931804 119.317828 133.075061L120.68648 120.219194C120.943398 117.80606 122.271068 116.75317 123.748476 116.440035L131.793835 114.734081 132.19944 110.928126 118.750928 113.779965C117.040771 114.141961 117.342872 110.948091 119.053555 110.586095L148.82606 104.27296C150.496813 103.918319 150.155832 107.120595 148.484553 107.475236L135.114326 110.309737 134.708722 114.115692 142.56021 112.451243C143.998739 112.146515 145.123608 112.633555 144.871419 115.000981L143.492785 127.949317C143.295236 129.806585 141.064939 130.777513 140.781226 129.159299L131.802767 131.062802zM187.735849 108.134869C189.29049 107.804921 188.993117 110.953082 187.283485 111.315604L183.707653 112.073748 181.365447 134.073047C181.147933 136.115254 178.387513 136.700543 178.605026 134.658336L180.947233 112.658511 176.166673 113.672522C174.960368 122.865342 173.844431 127.638021 170.173503 134.994063 169.208354 136.922785 168.300998 139.020683 166.889264 138.367093 166.272977 138.09021 166.027618 137.188634 166.597671 136.115779L166.602399 136.069545C170.744606 128.204396 172.414308 123.586182 173.76352 110.915779L174.464921 104.325762C174.727093 101.865342 175.942855 100.791436 177.52324 100.22979 181.031296 99.0324168 183.218511 97.7515061 186.520613 95.2826795 187.347583 94.6532574 188.091016 94.8135026 188.326918 95.4439755 188.998371 97.3427496 187.165797 98.5028196 185.454063 99.5909107 182.891716 101.178126 180.213783 102.425937 177.642504 103.379527 177.443905 103.467268 177.268424 103.685832 177.24373 103.918581L176.541804 110.508599 187.735849 108.134869zM159.74338 113.071996C159.589965 112.01648 159.276305 111.038722 158.908529 110.210175 158.264921 108.758511 160.488389 106.78986 161.209229 108.224711 161.736725 109.338021 162.113433 110.437145 162.280508 111.717005 162.540053 113.567968 159.964046 114.930841 159.74338 113.071996zM171.205902 101.75028C172.91606 101.387233 172.49732 104.606848 170.825517 104.960963L157.766322 107.72979C156.056165 108.092837 156.319912 104.906322 158.03007 104.5438L163.31606 103.423135 163.617636 100.592837C163.849335 98.4108757 166.8031 97.784606 166.570876 99.966042L166.269825 102.796865 171.205902 101.75028zM170.992067 112.320683C172.70275 111.957636 172.288739 115.129965 170.617461 115.484606L155.34268 118.723135C153.670876 119.077776 153.928844 115.938546 155.639527 115.575499L164.151436 113.771296C165.101874 111.981278 166.209405 109.433117 166.980683 107.182855 167.698371 105.079702 170.169299 105.418056 169.456865 107.473923 168.685587 109.724711 167.0038 113.02944 166.910806 113.185482L170.992067 112.320683zM169.44373 120.088634C171.153363 119.726112 170.779282 122.88951 169.069124 123.252032L163.74373 124.381103C165.174904 125.212277 166.348109 126.324536 167.345306 127.655359 168.072452 128.680403 169.114308 129.95711 167.479807 131.391961 166.890841 131.925236 166.191541 132.073398 165.731296 131.399317 165.508529 130.994238 165.011506 129.601419 163.320263 127.646953L162.178581 138.368144C161.965797 140.364116 159.322539 140.924186 159.535324 138.928214L160.667023 128.300018C158.971051 131.381454 157.140578 133.947478 155.353713 136.095289 154.054939 137.595289 152.682084 139.428914 151.757391 138.128039 151.359667 137.5769 151.49732 136.640648 152.198196 135.766392 152.807128 135.047653 157.346007 130.592312 160.090665 125.155534L155.154063 126.202644C153.443905 126.565166 153.741278 123.418056 155.412557 123.063415L161.320613 121.810876 161.567023 119.49021C161.779807 117.494238 164.461944 116.925236 164.249159 118.921208L164.002224 121.242399 169.44373 120.088634zM205.596147 111.247723C203.520841 112.735639 203.742557 116.452802 205.949737 115.868564 207.055166 115.55648 207.821191 114.463135 208.072855 113.32303 208.722242 110.585201 206.752014 110.459632 205.596147 111.247723M218.912785 102.487828C216.048336 103.134588 212.298599 104.162259 211.8 104.267863 211.723818 104.981874 211.270403 109.850701 211.054991 111.565061 211.312434 114.032837 210.767601 116.70972 209.449387 119.31725 207.60683 122.889405 204.410333 126.051226 200.667426 127.931086 198.950438 128.799037 198.40613 125.966637 200.264974 124.98993 203.912785 123.091156 206.898074 120.09063 208.183187 116.869965 206.367426 118.961559 203.562347 119.362434 202.431699 117.468914 201.275306 115.501839 201.665674 111.538266 204.74028 109.218126 206.220315 108.128459 207.729772 108.002364 208.909282 108.527758 209.02697 107.41655 209.263923 105.193608 209.280736 105.034413 207.064623 105.697986 204.699299 106.549124 202.5331 107.357706 199.718039 108.458932 197.918039 109.19028 195.10613 110.562084 193.426445 111.384326 193.074431 108.587653 194.749912 107.804816 197.382137 106.586953 199.361821 105.702189 202.41331 104.512172 205.124869 103.471366 207.344658 102.767863 209.497723 102.078546 209.612785 100.696235 209.732574 98.6524518 209.81979 96.6165499 209.881786 94.5081436 212.604378 93.6585814 212.505079 95.8142732 212.418389 97.8501751 212.27338 99.8214536 212.15359 101.24317 213.164448 100.913222 216.519089 99.9302102 219.24641 99.3517513 220.875131 99.0065674 220.607706 102.128459 218.912785 102.487828M235.061821 117.146112C235.1338 116.471506 235.198424 115.254694 234.829072 114.750841 234.543257 114.385166 233.978459 114.193923 233.271804 114.421419 232.423818 114.75662 231.926795 115.754869 232.284063 116.376935 232.568827 117.053643 233.90648 117.313187 235.061821 117.146112M235.356042 119.877636C232.429597 120.498126 230.661646 119.397951 230.202452 118.215289 229.121716 116.155219 230.839755 112.842084 233.238179 111.984116 234.66042 111.44979 237.69352 111.660473 237.240105 116.529299 240.811734 115.034028 243.908406 111.894273 244.098599 107.973783 244.232574 105.190245 242.361121 104.151541 240.021016 104.14366 237.162872 104.128949 233.557093 105.941033 230.88021 108.797075 229.072329 111.431926 227.243433 109.374483 228.480736 107.831926 230.850788 104.496725 236.501926 97.2068827 240.740806 92.504606 237.207005 93.6420841 233.802452 94.480613 233.407881 94.5252715 231.637303 94.6681786 231.958844 91.6508406 233.745709 91.3492644 236.130998 90.9205429 241.535201 89.6196673 244.72014 88.4018039 246.345709 87.7849912 246.577408 90.491296 245.034851 91.2452364 241.871979 94.088669 237.720315 99.1986515 234.721891 102.938406 236.85972 101.786743 238.900876 101.237706 240.762347 101.153643 244.385464 101.005482 246.970928 102.980438 246.888441 107.11056 246.69352 113.515639 240.975131 118.686567 235.356042 119.877636M280.954256 88.8687215C282.781051 88.4815061 282.381226 91.8776532 280.554431 92.2648687L266.989807 95.1408757C265.202417 95.5202102 265.445674 92.1566375 267.272995 91.7694221L280.954256 88.8687215zM271.761961 101.705674C271.351629 102.699194 269.201716 107.555937 266.617828 112.549282 270.544623 111.354011 275.306795 109.79937 278.854781 108.231068 277.95373 107.061016 277.35268 106.281331 276.373345 105.127566 275.73394 104.356287 275.90627 103.457338 276.475271 102.747531 277.789807 101.107776 278.75338 102.400245 279.664939 103.477303 281.75338 105.983433 283.069492 108.244203 283.908021 109.654361 284.546375 110.789212 285.399089 112.059615 283.914851 113.508651 283.238669 114.151208 282.461611 114.316182 281.904694 113.481856 280.820806 111.170123 281.294711 112.068021 280.48613 110.742977 274.323257 113.682557 263.832715 116.587461 259.921156 117.643503 258.706445 117.991839 256.850228 118.657513 257.154956 116.50655 257.27317 115.755762 257.813275 114.960315 258.629737 114.787461 258.707496 114.771173 260.544273 114.290963 263.128687 113.561191 265.443573 109.304974 267.603993 104.719335 268.613275 102.372925L259.402067 104.325814C257.574746 104.71303 257.843222 101.480806 259.630613 101.101471L287.304694 95.2338704C289.092609 94.8545359 288.785779 98.0956918 286.997338 98.4745009L271.761961 101.705674zM274.464588 75.9550613C275.444974 74.2501576 277.410998 74.6951664 277.019054 76.5928897 279.894536 81.3361471 284.645674 85.95331 290.492785 88.4794046 291.47317 88.9065499 291.46634 90.0419264 290.950403 90.9681961 289.873345 92.8748511 288.558809 92.0195096 287.190683 91.3112785 282.260385 88.7279159 278.018879 84.6829072 275.055131 80.0489317 270.910298 86.5076007 266.072995 91.9785289 260.857933 96.71338 259.092084 98.3126795 257.355131 99.9965674 256.624834 98.2916637 256.32063 97.5844834 256.589632 96.4843082 257.470193 95.7077758 263.783327 90.2862347 270.080701 83.5984939 274.464588 75.9550613zM248.642049 60.867373L239.764991 57.1854116 251.137145 29.7650963C251.698792 28.4106305 253.252382 27.7680736 254.607373 28.3297198L258.578827 29.9773555C259.933818 30.5390018 260.576375 32.0925919 260.014729 33.4475832L248.642049 60.867373z"/>
    <path fill="#231916" d="M240.657478,56.8157968 L248.272539,59.9744658 L259.383573,33.1856743 C259.584799,32.6991594 259.585324,32.162732 259.384098,31.6756918 C259.182872,31.1891769 258.804063,30.8098424 258.317023,30.6080911 L254.345569,28.9609807 C253.341541,28.5443433 252.184623,29.0224518 251.767986,30.0270053 L240.657478,56.8157968 Z M248.641891,61.550648 C248.5531,61.550648 248.463783,61.53331 248.380245,61.498634 L239.503187,57.8161471 C239.154326,57.6716637 238.988827,57.2718389 239.133835,56.9235026 L250.505989,29.5037128 C250.848021,28.6798949 251.489527,28.0383888 252.31387,27.6974081 C253.137688,27.3564273 254.045569,27.3569527 254.868862,27.6989842 L258.840315,29.3460946 C259.664658,29.6876007 260.305639,30.3296322 260.647145,31.1534501 C260.987601,31.9777933 260.987075,32.8851489 260.645569,33.7089667 L249.27289,61.1287566 C249.204063,61.2963573 249.070613,61.429282 248.903012,61.498634 C248.819475,61.53331 248.730683,61.550648 248.641891,61.550648 Z"/>
    <path fill="#FEFEFE" d="M242.231611,65.7816462 L248.641944,60.8671103 L239.764886,57.1851489 L240.815674,65.1942557 C240.90394,65.8699124 241.690981,66.1961821 242.231611,65.7816462"/>
    <path fill="#231916" d="M241.816025,65.2393345 L242.231611,65.7815412 L241.816025,65.2393345 L247.286953,61.0451138 L240.59606,58.2699825 L241.492907,65.105359 C241.506042,65.2062347 241.575394,65.249317 241.615324,65.2656042 C241.65683,65.2829422 241.736165,65.301331 241.816025,65.2393345 M241.697285,66.6500175 C241.493958,66.6500175 241.289054,66.6095622 241.091506,66.5276007 C240.568214,66.310613 240.211471,65.8445884 240.138441,65.2829422 L239.087653,57.2738354 C239.055604,57.0321541 239.155429,56.7915236 239.349299,56.6428371 C239.542644,56.494676 239.801664,56.4610508 240.026532,56.5540455 L248.90359,60.2365324 C249.12951,60.3295271 249.287653,60.5365324 249.319177,60.7787391 C249.351226,61.0204203 249.251401,61.2610508 249.057531,61.4097373 L242.647198,66.3237478 C242.366637,66.5391594 242.034588,66.6500175 241.697285,66.6500175"/>
    <polygon fill="#231916" points="241.058 66.611 244.545 63.938 240.486 62.254"/>
    <path fill="#231916" d="M90.1895622 167.580315L90.787986 170.170508 92.2916637 169.823222C93.0776532 169.641436 93.4669702 169.071384 93.272049 168.227601 93.0750263 167.37331 92.4692469 167.05387 91.6932399 167.23303L90.1895622 167.580315zM90.5405254 173.743187C90.3655692 173.784168 90.2105779 173.686445 90.1701226 173.511489 90.1322942 173.346515 90.2268651 173.182067 90.401296 173.141611L90.7601401 173.058599 89.5301926 167.73268 89.1713485 167.815692C88.9963923 167.856147 88.8414011 167.758424 88.8009457 167.583993 88.7625919 167.419019 88.8576883 167.255096 89.0321191 167.214641L91.6512084 166.609387C92.689387 166.369282 93.6435026 166.782242 93.9419264 168.072609 94.2350963 169.343012 93.5851839 170.157373 92.5275657 170.402207L90.92669 170.771559 91.420035 172.906235 91.8566375 172.805359C92.0310683 172.764904 92.1886865 172.871033 92.2270403 173.036532 92.2674956 173.211489 92.1702977 173.367005 91.9958669 173.407461L90.5405254 173.743187zM96.7939229 168.865587C97.2310508 170.757005 98.3023292 171.459457 99.7865674 171.115849 101.270806 170.773292 101.926497 169.672067 101.48937 167.781173 101.05014 165.878196 99.9783363 165.17627 98.4935727 165.519352 97.0093345 165.861909 96.3546935 166.963135 96.7939229 168.865587M96.1145884 169.022154C95.5834151 166.722504 96.4729072 165.352277 98.3548687 164.917776 100.23683 164.48275 101.637005 165.324431 102.168179 167.624081 102.694623 169.903765 101.807758 171.283975 99.9257968 171.718476 98.0438354 172.153503 96.6410333 171.301839 96.1145884 169.022154M105.743065 163.844606C104.724851 164.079457 104.452697 164.673678 104.580893 165.226392 104.952872 166.83725 108.460928 165.300998 109.001033 167.639527 109.281068 168.852137 108.601208 169.714308 107.107513 170.059492 106.001559 170.314834 105.046918 169.941804 104.571436 169.388564 104.514168 169.319212 104.495779 169.283485 104.482119 169.224641 104.441664 169.05021 104.546743 168.883135 104.721173 168.84268 104.837285 168.815359 104.948144 168.851611 105.029054 168.935149 105.455674 169.368074 106.114518 169.654939 106.968284 169.457391 108.035359 169.210981 108.538161 168.645657 108.341138 167.791891 107.921874 165.977706 104.452172 167.678406 103.920998 165.378757 103.715044 164.486637 104.187898 163.57035 105.603835 163.24303 106.525902 163.02972 107.362329 163.245131 107.910841 163.762644 107.96338 163.811506 107.99648 163.865622 108.011716 163.933398 108.052697 164.108354 107.947618 164.274904 107.773187 164.315359 107.685972 164.335849 107.591926 164.326392 107.492102 164.247583 107.118021 163.955989 106.558476 163.655989 105.743065 163.844606M114.791243 162.837426C114.831699 163.011856 114.735026 163.167373 114.560595 163.207828 114.395096 163.245657 114.230648 163.15056 114.189667 162.97613L113.981611 162.073503 112.545709 162.405552 113.778284 167.741454 114.176007 167.64951C114.350438 167.609054 114.508056 167.715184 114.54641 167.880683 114.58634 168.055639 114.489667 168.211156 114.315236 168.251611L112.840455 168.592067C112.665499 168.631996 112.510508 168.535324 112.470053 168.360368 112.431699 168.194869 112.526795 168.03042 112.701226 167.99049L113.118389 167.893818 111.885814 162.557916 110.440455 162.892067 110.648511 163.794168C110.688967 163.968599 110.592294 164.124641 110.417863 164.164571 110.252364 164.202925 110.087916 164.107303 110.047461 163.932872L109.771629 162.739177C109.7338 162.575254 109.828371 162.410806 110.003327 162.369825L114.145534 161.413082C114.32049 161.372627 114.475482 161.469299 114.515937 161.644256L114.791243 162.837426zM117.768914 161.209387L118.999387 166.535306 119.358231 166.452294C119.532662 166.411839 119.69028 166.517968 119.728634 166.683468 119.769089 166.858424 119.671891 167.01394 119.497461 167.054396L118.119352 167.372259C117.944921 167.412715 117.78993 167.315517 117.749475 167.14056 117.711121 166.975587 117.806217 166.811138 117.980648 166.770683L118.339492 166.687671 117.109545 161.361751 116.750701 161.444764C116.575744 161.485219 116.420228 161.387496 116.379772 161.213065 116.341944 161.048091 116.436515 160.884168 116.611471 160.843713L117.988529 160.525324C118.163485 160.484869 118.321103 160.590998 118.359457 160.755972 118.399912 160.930403 118.302715 161.086445 118.127758 161.1269L117.768914 161.209387zM122.118021 166.448984C121.943065 166.488914 121.788074 166.392242 121.747618 166.217285 121.70979 166.051786 121.804361 165.887338 121.978792 165.846883L122.337636 165.76387 121.107688 160.438476 120.748844 160.521489C120.573888 160.561419 120.418897 160.463695 120.378441 160.289264 120.340088 160.124816 120.435184 159.959842 120.609615 159.919912L121.337285 159.751786C121.472837 159.720263 121.566357 159.76965 121.645166 159.844256L126.190876 164.128319 125.124326 159.51063 124.755499 159.595744C124.580543 159.635674 124.425552 159.538476 124.385096 159.364046 124.346743 159.199072 124.441839 159.034623 124.616795 158.994694L125.993853 158.675779C126.168809 158.635849 126.326427 158.741979 126.364256 158.906953 126.404711 159.081384 126.307513 159.2369 126.133082 159.277356L125.764256 159.362469 127.075639 165.036725C127.118196 165.221664 127.006287 165.401349 126.821874 165.443905 126.705236 165.470701 126.599632 165.454413 126.518722 165.370876L121.913643 161.008529 122.978616 165.616235 123.356375 165.528494C123.531331 165.488564 123.688949 165.594694 123.727303 165.759667 123.767758 165.934623 123.670035 166.09014 123.495604 166.130595L122.118021 166.448984zM134.270806 162.333047L133.945587 160.926042 132.325271 161.300123C132.160298 161.338476 131.993222 161.233923 131.955394 161.069475 131.917566 160.904501 132.021594 160.737426 132.186567 160.699072L134.146287 160.246182C134.301804 160.210455 134.478336 160.312907 134.516165 160.477881L134.908634 162.175954C134.935429 162.292067 134.919142 162.398196 134.85662 162.524291 134.51669 163.175779 133.958196 163.85669 132.78394 164.127793 130.902504 164.56282 129.524396 163.817285 128.973257 161.431471 128.442084 159.131821 129.331576 157.762119 131.213012 157.327093 132.135079 157.113783 133.032452 157.326042 133.633503 157.851436 133.697601 157.907653 133.733327 157.971226 133.748564 158.038476 133.789019 158.213433 133.684991 158.381033 133.510035 158.421489 133.42282 158.441454 133.318792 158.434623 133.228949 158.353187 132.783415 157.975429 132.089895 157.757916 131.352242 157.928144 129.858546 158.273327 129.212837 159.372452 129.652067 161.274378 130.118616 163.291891 131.151541 163.870876 132.645236 163.525692 133.547863 163.31711 134.042259 162.804851 134.270806 162.333047M141.917023 156.049387L141.474641 159.309982 143.744869 158.785639 141.917023 156.049387zM141.410018 159.958319L141.212469 161.403678 141.561856 161.323292C141.736287 161.282837 141.893905 161.388967 141.931734 161.554466 141.972189 161.729422 141.874991 161.884413 141.70056 161.925394L140.322977 162.243257C140.148021 162.283713 139.99303 162.186515 139.952574 162.012084 139.914221 161.846585 140.009317 161.682137 140.184273 161.641681L140.494256 161.569702 141.330683 155.766725 140.777443 155.894396C140.603012 155.934851 140.448021 155.837128 140.40704 155.662697 140.369212 155.497723 140.464308 155.3338 140.638739 155.293345L141.744168 155.037478C141.890228 155.003853 142.009492 155.078459 142.08725 155.192995L145.607391 160.388616 145.927356 160.314536C146.101786 160.274606 146.259405 160.380736 146.297758 160.546235 146.338214 160.721191 146.241016 160.876708 146.066585 160.916637L144.688476 161.235026C144.514046 161.274956 144.359054 161.178284 144.318599 161.003327 144.280245 160.837828 144.375342 160.67338 144.549772 160.632925L144.889177 160.554641 144.087426 159.33993 141.410018 159.958319zM147.851821 154.260263L148.43028 156.76324 150.05007 156.388634C150.729405 156.231541 151.087198 155.566392 150.925377 154.868144 150.759877 154.14993 150.141489 153.731191 149.44324 153.892487L147.851821 154.260263zM152.238336 159.49056C152.073363 159.528914 151.977741 159.469019 151.911541 159.402294L149.548844 157.138371 148.568984 157.364291 149.081769 159.586182 149.441138 159.50317C149.615569 159.462715 149.773713 159.568844 149.811541 159.734343 149.851996 159.909299 149.754799 160.064291 149.580368 160.104746L148.202259 160.422609C148.027303 160.46359 147.872837 160.366392 147.832382 160.191436 147.794028 160.026462 147.888599 159.861489 148.063555 159.821033L148.422399 159.738546 147.192452 154.412627 146.833082 154.495114C146.658651 154.535569 146.503135 154.438371 146.46268 154.26394 146.424851 154.098967 146.519422 153.934518 146.693853 153.894063L149.313468 153.288809C150.391051 153.040298 151.354623 153.676025 151.595254 154.713678 151.825902 155.712977 151.3231 156.677601 150.285972 156.967618L152.28352 158.846427 152.730105 158.742925C152.904536 158.702995 153.062154 158.809124 153.100508 158.974623 153.140438 159.14958 153.04324 159.305096 152.868809 159.345026L152.238336 159.49056zM158.275797 152.791839C158.316252 152.96627 158.21958 153.122312 158.044623 153.162767 157.87965 153.200595 157.715201 153.105499 157.674221 152.931068L157.465639 152.028441 156.030263 152.36049 157.262312 157.696392 157.66056 157.604448C157.834991 157.563993 157.992084 157.670123 158.030438 157.835622 158.070893 158.010578 157.974221 158.166095 157.799264 158.206025L156.324483 158.54648C156.150053 158.586935 155.994536 158.490263 155.954081 158.315306 155.916252 158.149807 156.010823 157.985359 156.185779 157.945429L156.602417 157.848757 155.370368 152.512855 153.924483 152.84648 154.133065 153.749107C154.17352 153.923538 154.076848 154.079054 153.901891 154.11951 153.736918 154.157863 153.572469 154.062242 153.532014 153.887811L153.256182 152.694116C153.217828 152.529667 153.312925 152.365219 153.487356 152.324764L157.630088 151.368021C157.805044 151.327566 157.95951 151.423713 158.00049 151.598669L158.275797 152.791839zM161.253205 151.164326L162.483678 156.490245 162.842522 156.407233C163.016953 156.366778 163.174571 156.472907 163.212925 156.638406 163.25338 156.813363 163.156182 156.968879 162.981226 157.008809L161.604168 157.327198C161.429212 157.367653 161.274221 157.270455 161.233765 157.095499 161.195937 156.930525 161.289982 156.765552 161.464939 156.725096L161.823783 156.642609 160.59331 151.31669 160.234991 151.399177C160.060035 151.439632 159.905044 151.342434 159.864063 151.168004 159.826235 151.00303 159.921331 150.838581 160.095762 150.798126L161.473345 150.479737C161.647776 150.439807 161.805394 150.545937 161.843222 150.710911 161.883678 150.885342 161.787005 151.041384 161.612574 151.081313L161.253205 151.164326zM164.548214 153.213573C164.01704 150.913923 164.906532 149.543695 166.788494 149.109194 167.71056 148.895884 168.607408 149.108144 169.208984 149.633012 169.273082 149.689755 169.308284 149.753327 169.324046 149.820578 169.363975 149.995534 169.259947 150.162609 169.085517 150.203065 168.998301 150.223555 168.893748 150.2162 168.803905 150.135289 168.358897 149.757531 167.655394 149.542119 166.927198 149.710245 165.434028 150.055429 164.788319 151.154553 165.227548 153.05648 165.693573 155.073993 166.726497 155.652977 168.220193 155.307268 168.861173 155.159632 169.472207 154.752977 169.725447 154.121979 169.770105 154.01007 169.870455 153.95648 169.947688 153.938091 170.122119 153.898161 170.28972 154.002715 170.330175 154.177145 170.348039 154.254378 170.339632 154.307443 170.314413 154.374694 170.031226 155.093958 169.252067 155.703415 168.359422 155.909895 166.477461 156.344396 165.099877 155.599387 164.548214 153.213573M176.620981 153.571681C176.656708 153.727198 176.566865 153.87063 176.411874 153.906883L172.705744 154.76275C172.531313 154.803205 172.376322 154.705482 172.335867 154.531051 172.297513 154.366077 172.392084 154.201103 172.566515 154.160648L172.915902 154.080263 171.685429 148.754343 171.336042 148.834729C171.161611 148.875709 171.00662 148.777461 170.966165 148.60303 170.928336 148.438581 171.022907 148.274133 171.197863 148.233678L172.63324 147.902154C172.808196 147.861699 172.965289 147.967828 173.003643 148.132277 173.043573 148.306708 172.947426 148.46275 172.772469 148.50373L172.344799 148.601979 173.571068 153.908459 175.938494 153.361524 175.797163 152.75049C175.756708 152.575534 175.863888 152.418441 176.028336 152.380088 176.203292 152.339632 176.358284 152.43683 176.398739 152.611261L176.620981 153.571681zM182.949825 152.120175C182.966112 152.279895 182.864711 152.415447 182.709194 152.451699L178.809194 153.35275C178.634764 153.393205 178.479772 153.295482 178.439317 153.120525 178.401489 152.955552 178.495534 152.791103 178.669965 152.750648L179.019877 152.670263 177.789405 147.344343 177.440018 147.424729C177.265587 147.465709 177.110595 147.367461 177.07014 147.19303 177.031786 147.028581 177.126357 146.864133 177.301313 146.823678L181.094658 145.94732C181.269089 145.907391 181.424606 146.003538 181.464536 146.177968L181.634764 146.915622C181.675219 147.090053 181.578546 147.245569 181.404116 147.286025 181.238616 147.323853 181.074168 147.228757 181.033713 147.054326L180.932837 146.618249 178.449299 147.191979 178.989405 149.529982 181.123555 149.037163C181.288529 148.999335 181.455604 149.102837 181.493958 149.267285 181.531786 149.432785 181.427758 149.600385 181.262259 149.638214L179.128109 150.131559 179.679247 152.517898 182.269965 151.919475 182.169089 151.483398C182.128634 151.307916 182.235289 151.150298 182.400263 151.112469 182.574694 151.072014 182.73021 151.169212 182.770665 151.344168L182.949825 152.120175zM188.109877 147.770806C188.547005 149.662224 189.618809 150.364676 191.103047 150.021068 192.587285 149.678511 193.242977 148.577285 192.805849 146.686392 192.36662 144.783415 191.294816 144.081489 189.810053 144.424571 188.325814 144.767128 187.670648 145.868354 188.109877 147.770806M187.431068 147.927373C186.899895 145.627723 187.788862 144.257496 189.670823 143.822995 191.55331 143.387968 192.953485 144.22965 193.484133 146.529299 194.011103 148.808984 193.124238 150.189194 191.241751 150.623695 189.35979 151.058722 187.957513 150.207058 187.431068 147.927373M196.558266 149.252574C196.383835 149.292504 196.228844 149.195832 196.188389 149.020876 196.150035 148.855377 196.244606 148.690928 196.419562 148.650473L196.778406 148.567461 195.547933 143.242067 195.189615 143.325079C195.014658 143.365009 194.859667 143.267285 194.818687 143.092855 194.780858 142.928406 194.875429 142.763433 195.050385 142.723503L195.778056 142.555377C195.913608 142.523853 196.007128 142.57324 196.085412 142.647846L200.631121 146.931909 199.564571 142.314221 199.19627 142.399335C199.020788 142.439264 198.866322 142.342067 198.825342 142.167636 198.787513 142.002662 198.882609 141.838214 199.05704 141.798284L200.434623 141.47937C200.60958 141.43944 200.766673 141.545569 200.804501 141.710543 200.844956 141.884974 200.748284 142.04049 200.573853 142.080946L200.204501 142.16606 201.515884 147.840315C201.558441 148.025254 201.446532 148.204939 201.262119 148.247496 201.145482 148.274291 201.039877 148.258004 200.959492 148.174466L196.354413 143.812119 197.419387 148.419825 197.79662 148.332084C197.971576 148.292154 198.129194 148.398284 198.167548 148.563257 198.208004 148.738214 198.110806 148.89373 197.935849 148.934711L196.558266 149.252574zM203.413503 144.235166C202.882329 141.935517 203.772347 140.565814 205.653783 140.130788 206.575849 139.917478 207.472697 140.129737 208.073748 140.655131 208.138371 140.711349 208.173573 140.774921 208.189335 140.842172 208.22979 141.017128 208.125236 141.184203 207.950806 141.225184 207.86359 141.245149 207.759037 141.238319 207.669194 141.156883 207.224186 140.779124 206.520158 140.564238 205.792487 140.732364 204.298792 141.077023 203.653608 142.176147 204.092837 144.078599 204.558862 146.096112 205.591786 146.674571 207.085482 146.328862 207.725937 146.181226 208.337496 145.775096 208.59021 145.143573 208.635394 145.031664 208.735744 144.978074 208.812977 144.96021 208.987408 144.919755 209.155534 145.024308 209.195464 145.198739 209.213327 145.275972 209.204921 145.329037 209.180228 145.396287 208.896515 146.115552 208.117356 146.725534 207.224711 146.931489 205.343275 147.366515 203.965166 146.620981 203.413503 144.235166M215.711559 144.551769C215.727846 144.712014 215.626445 144.847566 215.471454 144.883292L211.570928 145.784343C211.396497 145.824799 211.241506 145.727601 211.201051 145.552644 211.162697 145.387671 211.257268 145.222697 211.432224 145.182767L211.781611 145.101856 210.551138 139.775937 210.202277 139.856848C210.02732 139.897303 209.872329 139.79958 209.831874 139.625149 209.79352 139.460701 209.888091 139.295727 210.063047 139.255797L213.856392 138.37944C214.030823 138.338984 214.18634 138.435131 214.226795 138.609562L214.397023 139.347215C214.436953 139.521646 214.34028 139.677688 214.165849 139.718144 214.000876 139.755972 213.835902 139.66035 213.795447 139.485919L213.694046 139.049842 211.211033 139.623573 211.751138 141.961576 213.884764 141.468757C214.050263 141.430928 214.217338 141.534956 214.255692 141.699405 214.29352 141.864904 214.188967 142.031979 214.023993 142.069807L211.890368 142.563152 212.440981 144.949492 215.031173 144.351068 214.930823 143.914991C214.890368 143.740035 214.997548 143.582417 215.161996 143.544063 215.336427 143.504133 215.491944 143.600806 215.531874 143.775762L215.711559 144.551769zM222.393888 137.458949L221.950981 140.719545 224.221734 140.194676 222.393888 137.458949zM221.886357 141.367356L221.688809 142.812715 222.038196 142.732329C222.213152 142.692399 222.370245 142.798529 222.408074 142.964028 222.448529 143.138984 222.351856 143.29345 222.177426 143.334431L220.799842 143.652294C220.625412 143.69275 220.469895 143.596077 220.429965 143.421121 220.391086 143.255622 220.486182 143.091173 220.660613 143.050718L220.971646 142.979264 221.807548 137.175762 221.253783 137.303433C221.079352 137.343888 220.924361 137.24669 220.883905 137.072259 220.846077 136.907285 220.940648 136.742837 221.115079 136.702382L222.221559 136.446515C222.366567 136.413415 222.486357 136.487496 222.56359 136.602032L226.08373 141.798179 226.404221 141.723573C226.578651 141.683643 226.73627 141.789772 226.774623 141.955271 226.814553 142.130228 226.717356 142.285744 226.542925 142.3262L225.165342 142.644063C224.990385 142.683993 224.835394 142.58732 224.794939 142.412364 224.75711 142.246865 224.851681 142.082417 225.026637 142.042487L225.366042 141.963678 224.564291 140.749492 221.886357 141.367356zM237.895061 133.459492L237.586655 139.600298C237.581401 139.755289 237.468441 139.884011 237.322382 139.91711 237.157933 139.954939 237.018704 139.885061 236.944098 139.738476L234.40697 135.123415 234.150578 140.384186C234.137443 140.550736 234.043923 140.674729 233.888406 140.710981 233.743398 140.744081 233.584729 140.678406 233.512224 140.541804L230.531664 135.160193 230.192259 135.239002C230.017828 135.279457 229.862312 135.181734 229.822382 135.007303 229.784028 134.842329 229.878599 134.677881 230.05303 134.637426L231.430613 134.319562C231.605569 134.279107 231.763187 134.385236 231.801016 134.549685 231.841996 134.724116 231.744273 134.880158 231.569842 134.920613L231.220455 135.001524 233.587356 139.318687 233.814851 134.02324C233.818004 133.859317 233.934116 133.741103 234.07965 133.707478 234.225184 133.673853 234.371243 133.731646 234.455306 133.875604L237.020806 138.566848 237.245674 133.609755 236.944623 133.679107C236.769667 133.719562 236.614676 133.621839 236.574221 133.447408 236.536392 133.282434 236.630963 133.118511 236.805919 133.077531L238.164063 132.76387C238.338494 132.72394 238.496112 132.83007 238.53394 132.994518 238.574396 133.168949 238.476673 133.324991 238.302242 133.364921L237.895061 133.459492zM246.007881 137.553363C246.024168 137.713608 245.922767 137.848634 245.76725 137.884886L241.86725 138.785937C241.692294 138.826392 241.537303 138.729194 241.496848 138.553713 241.459019 138.388739 241.553065 138.224291 241.728021 138.183835L242.077933 138.10345 240.847461 132.777531 240.498074 132.857916C240.323117 132.898897 240.168126 132.801173 240.128196 132.626743 240.089317 132.461769 240.184413 132.29732 240.358844 132.256865L244.152715 131.380508C244.327145 131.340578 244.482137 131.436725 244.522592 131.611156L244.69282 132.348809C244.733275 132.52324 244.636077 132.679282 244.461646 132.719212 244.296147 132.75704 244.131699 132.661944 244.091243 132.487513L243.990368 132.051436 241.50683 132.625166 242.046935 134.96317 244.181086 134.47035C244.34606 134.432522 244.513135 134.53655 244.551489 134.700473 244.589317 134.865972 244.485289 135.033573 244.31979 135.071401L242.185639 135.564746 242.736778 137.951086 245.327496 137.352662 245.22662 136.916585C245.186165 136.741629 245.293345 136.583485 245.457793 136.545657 245.632224 136.505727 245.787741 136.602399 245.828196 136.777356L246.007881 137.553363zM252.431664 136.069019C252.447951 136.229264 252.347075 136.364816 252.191559 136.401068L248.291559 137.302119C248.116602 137.342049 247.961611 137.244851 247.921681 137.069895 247.883327 136.904921 247.977898 136.739947 248.152329 136.700018L248.502242 136.619107 247.271769 131.293187 246.922382 131.374098C246.747951 131.414553 246.592434 131.31683 246.551979 131.142399 246.513625 130.977951 246.608722 130.812977 246.783152 130.773047L250.577023 129.89669C250.751454 129.856235 250.90697 129.952382 250.9469 130.126813L251.117128 130.864466C251.157583 131.038897 251.060911 131.194939 250.88648 131.235394 250.720981 131.273222 250.556007 131.177601 250.516077 131.00317L250.414676 130.567093 247.931138 131.140823 248.471243 133.478827 250.605394 132.986007C250.770893 132.948179 250.937443 133.052207 250.975797 133.216655 251.014151 133.382154 250.910123 133.549229 250.744623 133.587058L248.610473 134.080403 249.161086 136.466743 251.751804 135.868319 251.650928 135.432242C251.610998 135.257285 251.717653 135.099667 251.882102 135.061839 252.057058 135.021384 252.212049 135.118056 252.252504 135.293012L252.431664 136.069019zM259.052417 134.81606C258.926322 134.844956 258.827548 134.816585 258.761349 134.750385L255.819142 132.098196 255.188669 133.266147 255.585342 134.982609 255.944711 134.899597C256.119667 134.859667 256.27676 134.965797 256.315114 135.131296 256.355569 135.306252 256.258371 135.461769 256.08394 135.501699L254.706357 135.820088C254.531401 135.860018 254.37641 135.763345 254.335954 135.588389 254.297601 135.42289 254.392697 135.258441 254.567128 135.217986L254.925972 135.134974 253.696025 129.80958 253.336655 129.892067C253.162224 129.932522 253.006708 129.835324 252.966252 129.660368 252.928424 129.495919 253.022995 129.331471 253.197426 129.29049L254.536655 128.982084C254.711086 128.941103 254.868704 129.047758 254.906532 129.212207 254.947513 129.386637 254.850315 129.54268 254.675884 129.583135L254.355394 129.657215 254.980613 132.36352 256.722294 129.11028 256.460123 129.170701C256.285692 129.211156 256.130175 129.113433 256.08972 128.938476 256.051891 128.774553 256.146988 128.60958 256.321944 128.569124L258.087268 128.161419C258.261699 128.120963 258.419317 128.227618 258.457145 128.392067 258.497601 128.566497 258.400928 128.722014 258.226497 128.762995L257.547163 128.919562 256.141208 131.502925 259.13648 134.162469 259.544186 134.068424C259.718616 134.027968 259.875709 134.134098 259.914588 134.299597 259.954518 134.474553 259.85732 134.63007 259.68289 134.670525L259.052417 134.81606zM261.459825 133.860683C261.385744 133.540718 261.527601 133.355254 261.808687 133.290105 262.089772 133.224956 262.298354 133.330035 262.371909 133.650525 262.445989 133.971016 262.302557 134.146497 262.020946 134.211646 261.73986 134.276795 261.534431 134.181173 261.459825 133.860683M267.717846 126.570368L268.948319 131.896287 269.985972 131.656182C271.431856 131.322557 272.166883 130.477723 271.700333 128.460736 271.239037 126.461611 270.201909 125.996637 268.756025 126.330263L267.717846 126.570368zM268.078266 132.731138C267.903835 132.771594 267.748844 132.67387 267.707863 132.498914 267.670035 132.33394 267.764606 132.169492 267.939037 132.129037L268.288424 132.048651 267.057951 126.722732 266.708564 126.803117C266.534133 126.844098 266.379142 126.745849 266.338687 126.571419 266.300858 126.406445 266.394904 126.242522 266.56986 126.202067L268.616795 125.728687C270.46986 125.301016 271.816445 125.909422 272.369685 128.30627 272.92345 130.702067 271.977741 131.830088 270.125201 132.257758L268.078266 132.731138zM275.069264 127.682207C275.505867 129.574151 276.578196 130.276077 278.061909 129.932995 279.546673 129.590438 280.201839 128.489212 279.764711 126.597793 279.325482 124.695342 278.254203 123.993415 276.768914 124.335972 275.285201 124.679054 274.630035 125.78028 275.069264 127.682207M274.38993 127.839299C273.858757 125.53965 274.748249 124.169422 276.63021 123.734396 278.512697 123.299895 279.912347 124.141576 280.44352 126.441226 280.969965 128.720385 280.083625 130.101121 278.201138 130.535622 276.319177 130.970648 274.9169 130.118984 274.38993 127.839299M284.729002 122.640158L285.959475 127.966077 286.318319 127.883065C286.49275 127.842609 286.650893 127.949264 286.688722 128.114764 286.729702 128.289194 286.631979 128.444711 286.457023 128.485166L285.079965 128.80303C284.905009 128.844011 284.750018 128.746813 284.709562 128.571331 284.671734 128.406357 284.765779 128.241909 284.940736 128.201454L285.29958 128.118967 284.069107 122.793047 283.710788 122.875534C283.535832 122.915989 283.380841 122.818792 283.340385 122.644361 283.302032 122.478862 283.397128 122.314939 283.571559 122.274483L284.949142 121.956095C285.123573 121.915639 285.281716 122.022294 285.319545 122.186743 285.36 122.361173 285.262802 122.517215 285.088371 122.557671L284.729002 122.640158zM292.202522 121.854116C292.242977 122.028546 292.146305 122.184063 291.971874 122.224518 291.806375 122.262347 291.641926 122.16725 291.600946 121.99282L291.39289 121.090193 289.957513 121.422242 291.189562 126.758144 291.587811 126.6662C291.762242 126.625744 291.919335 126.731874 291.957688 126.897373 291.998144 127.072329 291.901471 127.227846 291.726515 127.268301L290.251734 127.608757C290.077303 127.648687 289.921786 127.552014 289.881331 127.377058 289.843503 127.211559 289.938074 127.04711 290.112504 127.00718L290.529667 126.910508 289.297618 121.574606 287.851734 121.908757 288.05979 122.810858C288.100245 122.985289 288.003573 123.140806 287.829142 123.181261 287.663643 123.219615 287.499194 123.123993 287.458739 122.949562L287.182907 121.755867C287.145079 121.591419 287.23965 121.427496 287.414606 121.386515L291.556813 120.429772C291.731769 120.389317 291.886235 120.485989 291.927215 120.660946L292.202522 121.854116zM295.375954 126.025954C295.301874 125.705989 295.443205 125.520525 295.724291 125.455377 296.005377 125.390228 296.213958 125.494781 296.287513 125.815271 296.362119 126.136287 296.218687 126.311769 295.937075 126.376918 295.655989 126.442067 295.450035 126.346445 295.375954 126.025954M294.820613 119.951349L295.760018 124.548021C295.788914 124.67359 295.741103 124.777093 295.576655 124.814921 295.411156 124.853275 295.323415 124.781296 295.294518 124.655727L294.122364 120.112644C294.058792 119.881996 294.150736 119.748546 294.393468 119.692329 294.635674 119.636637 294.767023 119.718599 294.820613 119.951349M298.771996 125.241489C298.697916 124.921524 298.839772 124.735534 299.120858 124.670911 299.401944 124.605762 299.610525 124.710315 299.684081 125.030806 299.758687 125.351296 299.614729 125.527303 299.333643 125.592452 299.052032 125.657075 298.846602 125.561979 298.771996 125.241489M298.21718 119.166357L299.156585 123.763555C299.185482 123.889124 299.137145 123.992102 298.973222 124.030455 298.807723 124.068809 298.719457 123.996305 298.691086 123.870736L297.518406 119.328179C297.455359 119.097531 297.546778 118.964081 297.78951 118.907863 298.032242 118.851646 298.16359 118.933608 298.21718 119.166357"/>
  </g>
</svg>
