<svg xmlns="http://www.w3.org/2000/svg" width="10" height="8" viewBox="0 0 10 8">
  <path fill="#4A90E2" d="M9.49479093,0.933787942 C9.49831044,0.92852752 9.50250033,0.923772099 9.50601983,0.918511678 C9.22730843,1.04261554 8.93146038,1.13305271 8.62337785,1.18936026 C8.5498872,1.20047027 8.47589376,1.20998111 8.40110424,1.21574653 C8.71542971,1.02241552 8.96799621,0.741004014 9.13182086,0.407114541 C9.17493482,0.324084048 9.21666611,0.240169804 9.24850927,0.15200514 C9.24482216,0.154235558 9.24079987,0.155960977 9.23711277,0.158149312 C9.23874682,0.152973057 9.24172165,0.148470136 9.2433138,0.143251798 C8.866559,0.367640338 8.44920417,0.530713405 8.00495025,0.618583485 C7.64922869,0.237855219 7.14233594,0 6.58143551,0 C5.50425699,0 4.63108415,0.877017473 4.63108415,1.95877055 C4.63108415,2.09966568 4.64729902,2.23660497 4.67537128,2.36908343 C4.67708913,2.38116136 4.67805281,2.39281845 4.67977066,2.40498054 C3.25432857,2.33272339 1.9717198,1.719737 1.0290786,0.766590705 C0.903884723,0.638194337 0.783090227,0.504874214 0.670424116,0.363516167 C0.669837531,0.364526168 0.66950234,0.365494086 0.668957655,0.366462004 C0.666653216,0.363684501 0.664055485,0.361285749 0.661751046,0.358466163 C0.493904098,0.647789345 0.397746149,0.984203821 0.397746149,1.34321707 C0.397746149,1.90410425 0.634558667,2.4081368 1.01076879,2.76542463 C1.08547451,2.83932303 1.16453771,2.90951809 1.25101701,2.97239065 C0.936691552,2.95997605 0.640969197,2.87320014 0.381950268,2.72868584 C0.38186647,2.7368921 0.381782672,2.74505627 0.381782672,2.7533467 C0.381782672,3.54257826 0.849960853,4.21746929 1.51967269,4.52775 C1.64947544,4.59045422 1.78464126,4.6436476 1.92906673,4.67748263 C1.77039564,4.7193135 1.60418275,4.74275394 1.4324392,4.74275394 C1.32144905,4.74275394 1.21418789,4.7297081 1.1083932,4.71169641 C1.09758328,4.70866641 1.0856421,4.70790891 1.07508358,4.70445807 C1.07558637,4.70593099 1.07634055,4.70723558 1.07680144,4.70866641 C1.07311433,4.70799308 1.06909204,4.70824558 1.06548874,4.70757224 C1.28269257,5.38881787 1.86173521,5.90762168 2.57506379,6.03698597 C2.67415466,6.0568914 2.77563377,6.06922183 2.87891453,6.07406142 C2.2127222,6.59560065 1.37516342,6.9065126 0.465161461,6.9065126 C0.338626817,6.9065126 0.214648006,6.89624426 0.0911719815,6.884503 C0.0626807373,6.87941091 0.0331420208,6.87751716 0.00532115885,6.87061548 C0.0107261155,6.87406632 0.0164662632,6.87701215 0.0218293209,6.88046299 C0.0146227121,6.87966341 0.00712281105,6.87995799 0,6.87915841 C0.863033306,7.4349535 1.88813151,7.75920588 2.9895695,7.75920588 C4.97151262,7.75920588 6.45439808,6.84624921 7.38723494,5.59418473 C7.39033546,5.59006056 7.39377117,5.58623097 7.39678789,5.5821068 C7.48599062,5.46174835 7.56807054,5.33764449 7.64696615,5.21156271 C7.66318102,5.18584977 7.68115564,5.16127308 7.69690962,5.13530764 C7.7696461,5.01486503 7.83530165,4.8914345 7.89877847,4.76699397 C7.91457435,4.7360206 7.93254897,4.70609933 7.94780017,4.67474721 C8.02170981,4.52324707 8.08832904,4.3693061 8.14845395,4.21355554 C8.14920813,4.21174595 8.15000421,4.20993637 8.15075839,4.20812678 C8.40567122,3.54615534 8.5384907,2.85316846 8.5384907,2.18585243 C8.5384907,2.10084401 8.53660525,2.01642477 8.53283435,1.93242636 C8.83593091,1.71262491 9.10534076,1.44787841 9.33528186,1.15165356 C9.39511348,1.07826016 9.4543585,1.00436176 9.51000023,0.927601686 C9.50501426,0.929916271 9.4997769,0.93164169 9.49479093,0.933787942 Z"/>
</svg>
